<svg height="289" viewBox="0 0 931 289" width="931" xmlns="http://www.w3.org/2000/svg"><g fill-rule="evenodd"><path d="m385.75 4.58c-.413.414-.75 5.853-.75 12.087v11.333l-10.25.015c-12.712.019-15.836 1.431-5.162 2.333 4.243.359 9.446.652 11.563.652h3.849v4.417c0 2.597-.515 4.624-1.25 4.921-1 .403-1 .52 0 .583.75.047 1.278 1.579 1.32 3.829.039 2.063.422 4.65.853 5.75.981 2.511 2.463-7.685 2.144-14.75l-.215-4.75h4.927c2.71 0 7.806-.309 11.324-.686 8.511-.914 4.644-2.078-7.353-2.214l-8.75-.1-.058-8.25c-.065-9.319-1.073-16.294-2.192-15.17m267.25 15.575c-5.225 1.631-21.272 6.764-35.661 11.405-14.388 4.642-27.063 8.44-28.166 8.44-1.104 0-2.156.358-2.34.796-.183.438-6.408 2.693-13.833 5.011-7.425 2.317-18.45 5.824-24.5 7.792-68.323 22.228-78.643 25.402-82.624 25.416-2.625.009-3.865.34-3.099.826.8.507-5.935 3.155-18 7.077-10.602 3.446-20.402 6.655-21.777 7.131s-16.225 5.197-32.999 10.491c-16.775 5.294-30.647 9.773-30.828 9.954s.268 1.435.999 2.786l1.328 2.457 6-1.913c3.3-1.053 30.424-9.994 60.277-19.869 29.852-9.875 55.074-17.955 56.05-17.955.975 0 2.201-.394 2.723-.876.523-.482 15.125-5.659 32.45-11.504s41.596-14.225 53.936-18.623c12.34-4.399 23.729-7.997 25.309-7.997s2.652-.357 2.382-.794 7.466-3.432 17.191-6.655c37.499-12.43 62.111-21.801 35.182-13.396m177.652 9.595c-.351 3.712-.641 9.112-.645 12l-.007 5.25h-10c-6 0-10 .4-10 1 0 .579 3.259 1.006 7.75 1.014 12.266.021 11.975-.196 12.471 9.326.252 4.834-.002 8.72-.623 9.534-.577.755-9.16 8.372-19.073 16.926-9.914 8.555-17.913 15.811-17.775 16.127.138.315-.087.58-.5.588-1.218.025-3.25 1.537-3.25 2.419 0 .449 1.462 1.119 3.25 1.49l3.25.675-2.361 1.95c-1.298 1.073-1.861 1.951-1.25 1.951s1.111 1.575 1.111 3.5c0 3.776 1.298 4.561 2.895 1.75.841-1.481 1.31-1.557 3.05-.492 1.198.734 2.055.842 2.055.259 0-.55-.9-1.562-2-2.249-2.308-1.441-2.667-3.768-.582-3.768.78 0 2.13-.273 3-.607 1.053-.404 1.582-.049 1.582 1.059 0 .916-.45 1.388-1 1.048s-1-.19-1 .334.694 1.218 1.543 1.544c1.214.466 1.313 1.022.465 2.607-.593 1.108-1.711 2.015-2.484 2.015-2.191 0-2.806 1.861-1.159 3.508 1.932 1.932 2.444 1.882 2.274-.22-.076-.941.647-1.874 1.607-2.072 1.319-.273 1.587.085 1.095 1.461-.358 1.003-1.087 2.386-1.619 3.073-1.224 1.582-4.722 1.638-4.722.075 0-.646-.834-.309-1.854.75-1.907 1.98-.737 4.157 1.32 2.456 1.251-1.033 6.534-.156 6.534 1.086 0 .485.848.883 1.883.883 2.855 0 3.258 3.519.681 5.94-1.217 1.143-2.516 1.774-2.888 1.402-.372-.371-.676-.102-.676.598 0 .722-.651 1.024-1.5.698-.914-.35-1.5-.001-1.5.893 0 .808-.675 1.469-1.5 1.469-2.194 0-1.832 1.76.516 2.505 2.504.795 5.239-1.427 69.554-56.505 17.661-15.125 36.632-31.325 42.156-36l10.045-8.5-29.077-.265-29.078-.266-3.6 3.516-3.6 3.515h-10.577-10.577l-.62-3.75c-.341-2.062-.625-7.462-.631-12s-.396-8.25-.866-8.25c-.471 0-1.143 3.038-1.493 6.75m3.013 20c-.249.413-.5 4.05-.557 8.083l-.104 7.334 4.813-3.834c2.646-2.108 6.984-5.746 9.638-8.083l4.827-4.25h-9.082c-4.995 0-9.286.337-9.535.75m-293.017 27.5c-.347 2.888-.635 6.713-.639 8.5l-.009 3.25h-8.941c-4.918 0-9.219.45-9.559 1-.396.64 2.823 1 8.941 1h9.559l.014 6.75c.007 3.713.283 7.757.613 8.989 1.212 4.521 2.373.915 2.373-7.369v-8.512l8.875.321c6.792.246 8.763.028 8.393-.929-.332-.862-3.085-1.25-8.875-1.25h-8.393v-8.5c0-9.459-1.378-11.362-2.352-3.25m257.602 23.781c-2.356.947-2.917 2.439-1.294 3.442.526.325.709 1.364.406 2.309-.422 1.318-.325 1.402.419.361.709-.993 1.161-1.047 1.683-.201.539.872 1.06.868 2.125-.016 1.556-1.292 1.964-3.386.48-2.469-.512.317-1.213.118-1.559-.441-.345-.559-.151-1.016.431-1.016s1.059-.675 1.059-1.5c0-1.691-.542-1.758-3.75-.469m8 7.631c-1.758.71-1.562 3.338.25 3.338.825 0 1.5-.188 1.5-.418s.273-1.13.607-2c.611-1.593-.05-1.85-2.357-.92m-19.483 12.174c.289.751-.091 1.746-.842 2.211-2.559 1.581-.235 1.995 2.676.477 1.595-.831 3.462-1.514 4.149-1.518.688-.003 1.25-.409 1.25-.901s-1.745-1.061-3.878-1.265c-2.967-.283-3.756-.049-3.355.996m9.881 7.849c-1.376 1.377-.538 2.017 2.007 1.53 2.338-.447 2.586-.244 2.078 1.698-.478 1.828-.205 2.153 1.595 1.896 2.374-.338 3.716-4.476 1.452-4.476-.724 0-2.478-.291-3.899-.648s-2.876-.357-3.233 0m-712.929 7.315c-.386 3.025-.706 7.863-.71 10.75l-.009 5.25h-6.5c-3.667 0-6.5.436-6.5 1 0 .55.338.947.75.882.412-.066 3.338-.066 6.5 0l5.75.118v3.893c0 2.524.523 4.094 1.488 4.464.818.314 1.44.25 1.382-.143-.059-.393-.054-2.401.012-4.464l.118-3.75 5.75-.058c3.162-.031 7.55-.43 9.75-.885 3.24-.67 2.148-.849-5.75-.942l-9.75-.115-.074-6.25c-.041-3.437-.396-8.275-.789-10.75l-.716-4.5zm709.281-2.05c0 1.012 4.045 2.14 5.174 1.443 1.731-1.07.71-2.092-2.174-2.174-1.65-.047-3 .282-3 .731m106.07 38.8-.07 11.25h-8.941c-4.918 0-9.219.45-9.559 1-.394.638 2.621 1 8.334 1 7.241 0 9.068.302 9.559 1.582.334.87.607 7.695.607 15.166 0 7.472.257 13.328.571 13.014s.876-7.026 1.25-14.916l.679-14.346 10.5-.5 10.5-.5-10.75-.869-10.75-.87-.07-9.13c-.039-5.022-.457-10.031-.93-11.131-.551-1.283-.885 2.033-.93 9.25m-744.07 11.961c-18.975 6.334-39.9 13.243-46.5 15.354l-12 3.838 44.5.044 44.5.044 3.593-15.495c3.079-13.277 3.366-15.482 2-15.398-.876.054-17.118 5.28-36.093 11.613" fill="#f9021a"/><path d="m0 144.501v144.501l465.75-.251 465.75-.251.253-144.25.254-144.25h-466.004-466.003zm.487.499c0 79.475.118 111.988.263 72.25.145-39.737.145-104.762 0-144.5-.145-39.737-.263-7.225-.263 72.25m384.16-133.349c-.356 4.208-.647 9.608-.647 12v4.349h-11.5c-6.325 0-11.5.387-11.5.861 0 1.057 8.347 2.119 16.75 2.13l6.25.009v4.5 4.5l-12.25.043-12.25.042-29 28.424c-15.95 15.633-29.319 28.439-29.708 28.457-.39.019-5.876-10.203-12.192-22.716s-12.784-25.225-14.374-28.25l-2.889-5.5-78.419-.278c-65.581-.233-79.973-.034-87.918 1.213-23.082 3.622-41.012 13.124-56.704 30.051-17.9 19.309-27.296 42.824-27.296 68.312 0 23.658 8.499 41.184 25.292 52.157 7.398 4.834 15.444 7.646 28.432 9.937 9.252 1.633 9.878 1.626 15.706-.172 13.415-4.138 57.439-18.35 79.57-25.687l23.5-7.791 6.728-28.871c3.7-15.879 6.85-29.695 7-30.703.26-1.749-2.034-1.856-50.978-2.378-36.895-.394-51.25-.239-51.25.552 0 .604 6.077 9.212 13.505 19.128l13.505 18.03h12.995c7.147 0 12.992.338 12.989.75s-.42 2.325-.926 4.25c-.507 1.925-1.436 6.088-2.066 9.25l-1.144 5.75h-30.804c-16.942 0-32.21-.281-33.929-.625-2.929-.586-3.125-.9-3.125-5v-4.375h8.941c4.918 0 9.18-.387 9.473-.86.525-.85-8.554-2.14-15.061-2.14h-3.353l-.014-7.75c-.014-8.319-.689-12.25-2.103-12.25-.485 0-.883 4.5-.883 10 0 9.656-.077 10.006-2.25 10.162-7.876.567-11.396.463-12.445-.369-2.288-1.813-4.628-11.202-4.582-18.383.155-23.959 17.232-45.414 40.517-50.904 4.863-1.147 13.788-1.48 39.995-1.491l33.735-.015 14.265-12.169c7.846-6.694 16.31-14.006 18.809-16.25 12.336-11.078 11.813-10.718 12.814-8.826 6.066 11.468 30.657 57.985 38.352 72.546l9.935 18.8-7.606 33.7c-4.183 18.534-7.802 34.262-8.041 34.949-.339.974 4.173 1.25 20.434 1.25h20.869l1.079-4.75c.593-2.613 4.013-17.419 7.599-32.904 3.587-15.484 6.521-28.819 6.521-29.631 0-1.472 23.718-24.591 65.521-63.865 12.088-11.357 24.665-23.395 27.948-26.75l5.968-6.1h-12.218-12.219v-4.5-4.5l7.75-.058c8.855-.065 16.553-1.294 14.25-2.273-.825-.35-6-.757-11.5-.903l-10-.266-.249-9.5c-.137-5.225-.483-10.512-.769-11.75-1.016-4.395-2.198-2.144-2.835 5.401m268.853 8.063c-6.05 1.88-22.821 7.213-37.269 11.852-24.372 7.825-26.875 8.434-34.67 8.434h-8.402l-.62 2.822c-.509 2.319-1.504 3.105-5.579 4.408-2.728.872-4.96 1.351-4.96 1.064s1.913-2.269 4.25-4.405l4.25-3.882-59.5.317c-56.181.299-60.002.433-68.5 2.406-29.942 6.952-53.08 26.147-68.087 56.485-2.099 4.243-3.564 7.967-3.256 8.275s12.88-3.276 27.937-7.965 27.816-8.525 28.353-8.525c.538 0 5.044-1.983 10.015-4.406 9.077-4.424 16.885-6.655 22.837-6.524l3.201.071-4 1.499c-4.504 1.687-57.088 18.686-83 26.831-15.919 5.003-16.982 5.491-16.721 7.665.405 3.378 1.542 4.073 4.697 2.873 1.541-.586 2.958-.909 3.149-.717.191.191-.321 3.843-1.139 8.116-6.535 34.155 7.836 61.906 37.378 72.18 13.421 4.667 22.954 5.4 70.315 5.406l43.679.006 1.173-5.75c.645-3.162 2.477-11.536 4.071-18.607 1.594-7.072 2.898-13.464 2.898-14.205 0-1.106-8.446-1.4-47.25-1.642-46.214-.29-47.371-.345-52.75-2.526-11.148-4.519-16.093-10.797-18.062-22.934-1.234-7.607.019-15.907 3.998-26.471 3.602-9.566 3.383-9.446 38.756-21.201l32.092-10.664h22.184 22.185l10.731-10.521c5.902-5.786 11.665-11.175 12.807-11.975 2.321-1.626 17.492-6.654 18.135-6.011.422.422-.841 6.486-5.472 26.257l-2.635 11.25h-8.86-8.859v-8.5c0-6.889-.284-8.5-1.5-8.5s-1.5 1.611-1.5 8.5v8.5h-9.441c-5.193 0-9.689.402-9.993.893-.303.491 3.945 1.214 9.441 1.608l9.993.715v8.392c0 6.793.286 8.392 1.5 8.392s1.5-1.597 1.5-8.372v-8.371l8.25-.5c4.538-.275 8.408-.362 8.602-.194.193.169-4.403 20.924-10.214 46.122-11.808 51.204-14.638 63.829-14.638 65.304 0 .674 32.335 1.011 97.037 1.011h97.037l13.213-11.357c30.688-26.377 37.422-32.183 41.252-35.571 2.222-1.965 11.169-9.422 19.883-16.572 15.319-12.57 47.836-40.029 56.13-47.399 2.228-1.981 16.999-14.626 32.824-28.101l28.773-24.5-29.503-.265-29.502-.265-3.822 3.51-3.822 3.51-10.103.005-10.103.005-.701-11.721c-.386-6.446-.902-11.921-1.147-12.166-1.33-1.331-1.981 2.222-2.282 12.468l-.336 11.419h-10.914c-6.003 0-10.914.385-10.914.855 0 .885 10.297 2.125 17.75 2.138l4.25.007v8.843 8.844l-5.245 4.406c-4.355 3.658-33.551 28.608-38.794 33.152-4.792 4.152-25.385 21.814-45.575 39.088l-23.113 19.776-65.636.113c-36.1.062-65.912-.163-66.249-.5-.557-.558 1.299-10.503 3.727-19.972l.962-3.75h42.733 42.733l21.334-17.75 21.335-17.75-59.106-.258c-46.273-.202-59.108-.528-59.114-1.5-.004-.683.987-6.08 2.202-11.992l2.209-10.75h66.642 66.642l12.279 14.5c6.753 7.975 12.461 14.5 12.683 14.5s1.855-1.294 3.628-2.876c1.772-1.582 8.736-7.694 15.473-13.582 6.737-5.889 12.25-11.143 12.25-11.676s-7.538-9.92-16.75-20.859l-16.75-19.89-80-.111-80-.11 31.895-10.927c17.543-6.01 32.13-11.161 32.417-11.448 1.452-1.452-1.287-.921-11.312 2.193m178.976 112.326c-.354.571-7.243 6.689-15.309 13.594-8.067 6.905-14.667 12.994-14.667 13.532s8.311 10.846 18.47 22.906l18.47 21.928h28.33 28.33l-7.05-8.372c-3.877-4.605-7.051-8.542-7.052-8.75-.002-.208 3.553-.233 7.898-.055l7.9.323.723 15.427c.398 8.485 1.119 15.427 1.602 15.427.484 0 .886-6.412.894-14.25.009-7.838.368-14.804.798-15.482.486-.764 4.675-1.487 11.044-1.904 12.429-.814 11.484-2.327-1.468-2.349l-9.11-.015-.631-5.25c-.347-2.887-.635-8.062-.639-11.5-.015-10.544-1.727-6.932-2.488 5.25l-.718 11.5-9.652-.047-9.651-.048-4.5-5.626c-5.393-6.743-31.896-38.23-36.638-43.529-3.664-4.093-3.938-4.245-4.886-2.71m-687.976 55.633c-25.85 8.515-47.9 15.867-49 16.337-1.148.491 17.454.883 43.691.922 25.13.038 45.906-.279 46.168-.703.402-.651 5.868-22.809 7.395-29.979.263-1.238.089-2.207-.387-2.155-.477.052-22.017 7.062-47.867 15.578m-91.464 58.577c-2.387 11.137-4.554 21.287-4.815 22.554-.458 2.22-.265 2.292 5.33 2l5.805-.304 4.793-21.5c2.637-11.825 4.807-21.838 4.822-22.25.016-.412-2.586-.75-5.783-.75h-5.812zm58.634 1.051c-2.568 11.716-4.67 21.863-4.67 22.55 0 .888 1.651 1.162 5.706.949l5.706-.3 2.803-13.5c4.32-20.804 2.746-20.586 15.069-2.092l10.723 16.092h7.399 7.398l2.589-11.25c1.423-6.187 3.671-16.312 4.994-22.5l2.405-11.25h-5.77-5.77l-3.316 15.5c-1.824 8.525-3.588 15.5-3.922 15.5-.333 0-5.275-6.975-10.982-15.5l-10.376-15.5h-7.658-7.658zm106.258-15.551c-.668 3.162-2.879 13.287-4.914 22.5l-3.698 16.75h20.664c23.519 0 27.434-.787 33.569-6.744 4.492-4.363 6.913-9.566 8.519-18.305 1.093-5.946 1.018-6.968-.81-11.102-1.574-3.556-2.986-5.023-6.452-6.701-4.099-1.984-6.007-2.148-25.05-2.148h-20.613zm101.563-4.5c-1.406 3.934-5.482 25.924-5.486 29.596-.007 5.816 2.509 9.734 7.973 12.416 3.871 1.9 6.178 2.221 16.022 2.228 9.902.008 12.195-.311 16.5-2.294 5.567-2.565 9.972-6.343 12.067-10.353 1.35-2.585 7.433-28.268 7.433-31.386 0-1.261-1.074-1.5-5.652-1.257l-5.653.3-2.718 12.23c-3.633 16.35-4.454 18.128-9.401 20.375-5.143 2.336-16.424 2.542-20.611.377-4.884-2.526-4.836-4.426.795-31.232.447-2.124.156-2.25-5.175-2.25-3.613 0-5.809.45-6.094 1.25m105.509-.129c-7.037 2.797-11.785 13.155-9.054 19.75 2.041 4.927 6.087 6.127 20.705 6.143 15.44.016 17.349.409 17.349 3.567 0 3.975-2.752 4.505-22.704 4.374-20.713-.137-19.188-.639-20.62 6.795l-.626 3.25h21.507c23.362 0 26.361-.538 30.201-5.419 2.918-3.71 4.49-11.572 3.107-15.538-1.841-5.282-5.411-6.361-22.67-6.853l-15.304-.436.304-2.627.305-2.627 19.491-.5 19.492-.5.64-3c.352-1.65.694-4.012.759-5.25l.118-2.25-20.25.063c-11.137.035-21.375.511-22.75 1.058m82.558 2.629c-.366 2.063-.906 4.569-1.201 5.571-.497 1.686.169 1.797 9.055 1.5 5.276-.177 9.591-.027 9.59.332s-1.577 7.684-3.502 16.277-3.5 16.084-3.5 16.647c0 .613 2.301.903 5.745.723l5.745-.3 3.511-16.5 3.51-16.5 9.926-.5c10.972-.553 9.814.249 11.92-8.25l.681-2.75h-25.408-25.407zm90.426-3.5c-.008.137-2.17 10.262-4.804 22.5l-4.788 22.25h5.785c5.173 0 5.842-.238 6.324-2.25.297-1.238 2.015-8.775 3.82-16.75l3.28-14.5h13.449 13.45l.294 3c.585 5.965-1.297 6.943-14.42 7.5-11.543.49-11.805.552-12.483 3-1.538 5.559-1.244 6 3.996 6 4.846 0 4.936.06 10.543 7l5.656 7h8.443 8.443l-6.469-6.75-6.47-6.75 3.733-1.627c7.104-3.094 11.234-10.022 11.234-18.841 0-5.452-1.842-8.261-6.605-10.072-2.108-.801-42.363-1.475-42.411-.71m98.016 1.352c0 .881-2.025 10.808-4.5 22.061s-4.5 20.657-4.5 20.898c0 .242 2.587.439 5.75.438l5.75-.001 2.377-11.249c1.308-6.187 3.445-15.858 4.75-21.491s2.373-10.695 2.373-11.25c0-.565-2.634-1.008-6-1.008-4.836 0-6 .311-6 1.602m59.516.648c-.287 1.238-2.123 9.675-4.079 18.75-1.957 9.075-3.933 18.188-4.391 20.25l-.833 3.75h23.275 23.275l1.163-4.622c.64-2.542.934-4.851.653-5.132-.281-.282-8.207-.452-17.613-.378l-17.101.133.647-2.251c.356-1.237.866-3.037 1.135-4 .433-1.554 1.972-1.75 13.752-1.75h13.264l1.025-4.477c.563-2.463.789-4.713.501-5-.287-.288-6.219-.523-13.182-.523h-12.661l.441-3 .44-3h17.319c19.216 0 17.619.609 19.012-7.25l.665-3.75h-23.093-23.092zm95.7-.262c-4.921 2.234-8.157 7.892-8.194 14.328-.051 8.93 3.454 10.684 21.347 10.684 7.407 0 14.179.273 15.049.607 1.958.751 2.073 4.741.182 6.31-.967.802-7.213 1.124-20.163 1.039-20.573-.136-19.649-.415-20.854 6.294l-.674 3.75 21.296-.022c18.927-.019 21.771-.238 25.579-1.966 5.107-2.318 8.16-7.939 8.194-15.088.042-8.712-4.899-10.756-26.259-10.864-9.556-.049-11.891-.346-12.362-1.573-.32-.832-.025-2.182.654-3 1.012-1.22 4.614-1.487 20.029-1.487h18.794l1.083-5.049c.596-2.777 1.083-5.252 1.083-5.5s-9.112-.441-20.25-.429c-17.892.019-20.749.248-24.534 1.966m-610.216 9.731c6.967.16 13.495.803 14.748 1.452 1.237.641 2.537.877 2.889.525 1.615-1.615-5.861-2.677-17.452-2.48l-12.685.216zm17.769 6.531c.201 1.787-.329 4.9-1.18 6.917-2.222 5.268-6.102 7.652-13.166 8.089l-5.923.366 5.8.189c7.533.246 11.294-1.703 13.757-7.127 1.906-4.199 2.639-11.684 1.144-11.684-.44 0-.634 1.463-.432 3.25" fill="#fff"/><path d="m105.84 41.543c-27.093 4.22-47.943 16.52-63.899 37.696-26.116 34.658-28.104 81.656-4.452 105.261 9.209 9.191 19.173 13.796 36.868 17.038 8.624 1.581 9.072 1.566 17-.56 4.479-1.201 10.618-3.005 13.643-4.01s23.725-7.764 46-15.019 41.006-13.699 41.624-14.32c1.185-1.19 14.851-59.488 14.117-60.221-.234-.235-23.215-.31-51.067-.167l-50.641.259 13.581 18.25 13.58 18.25h13.028 13.028l-.631 3.25c-.347 1.787-1.349 6.512-2.226 10.5l-1.594 7.25-27.149-.02c-31.276-.023-38.722-.82-47.289-5.062-11.423-5.656-15.801-13.253-15.802-27.418-.002-23.761 15.92-44.348 39.572-51.166 4.231-1.22 12.861-1.646 40.718-2.009l35.349-.461 18.565-16.182c10.211-8.9 20.179-17.626 22.151-19.39l3.586-3.209-54.5.055c-40.552.042-56.716.401-63.16 1.405m118.165-.293c.002.688 10.852 21.725 24.111 46.75l24.107 45.5-1.192 6c-.655 3.3-4.081 18.721-7.611 34.27-3.531 15.548-6.42 28.711-6.42 29.25 0 .608 7.691.98 20.25.98h20.25l6.242-27.25c3.433-14.988 6.969-30.512 7.858-34.499l1.617-7.249 25.154-24.251c13.835-13.338 36.153-34.601 49.596-47.251l24.442-23-10.89-.286c-5.99-.157-11.446-.072-12.125.188-.679.261-1.562 3.089-1.962 6.286-.54 4.313-.929 5.296-1.509 3.812-.431-1.1-.814-3.639-.853-5.643-.047-2.443-.623-3.855-1.749-4.287-.924-.355-6.661-.586-12.75-.514l-11.071.13-21.502 21.157c-11.826 11.636-25.105 24.639-29.509 28.894l-8.008 7.738-14.49-28.374-14.491-28.374-5-.605c-2.75-.332-13.437-.609-23.75-.613-14.34-.007-18.749.285-18.745 1.241m230.495-.067c-16.61 1.782-31.774 7.182-44.622 15.892-8.185 5.549-20.266 17.636-25.828 25.841-3.663 5.403-13.05 22.933-13.05 24.37 0 1.349 59.788-17.645 67-21.286 7.51-3.791 14.862-5.753 24.5-6.536 6.315-.513 15.056-2.933 41.5-11.491 18.425-5.963 38.123-12.243 43.773-13.957 10.086-3.059 12.02-4.232 21.699-13.163 1.24-1.144-104.045-.842-114.972.33m118.205 1.567c-.291 1.513-.443 2.837-.339 2.944.482.495 14.615-4.283 14.624-4.944.005-.413-3.088-.75-6.873-.75-6.715 0-6.897.068-7.412 2.75m24.295-1.662c-2.475.443-9.45 2.573-15.5 4.732-10.826 3.864-11.018 3.988-12.156 7.803-1.081 3.628-8.072 33.334-8.94 37.993-.217 1.164-5.754 25.464-12.305 54-6.55 28.536-12.213 53.347-12.584 55.134l-.674 3.25h96.928 96.928l18.902-16.182c10.395-8.9 24.076-20.722 30.401-26.271 6.325-5.548 13.893-12.088 16.818-14.532 4.556-3.806 5.093-4.607 3.75-5.589-1.978-1.446-2.005-2.426-.068-2.426.825 0 1.5-.661 1.5-1.469 0-.894.586-1.243 1.5-.893.849.326 1.5.024 1.5-.698 0-.7.304-.969.676-.598.372.372 1.671-.259 2.888-1.402 2.577-2.421 2.174-5.94-.681-5.94-1.035 0-1.883-.398-1.883-.883 0-1.242-5.283-2.119-6.534-1.086-2.057 1.701-3.227-.476-1.32-2.456 1.02-1.059 1.854-1.396 1.854-.75 0 1.563 3.498 1.507 4.722-.075.532-.687 1.261-2.07 1.619-3.073.492-1.376.224-1.734-1.095-1.461-.96.198-1.683 1.131-1.607 2.072.17 2.102-.342 2.152-2.274.22-1.647-1.647-1.032-3.508 1.159-3.508.773 0 1.891-.907 2.484-2.015.848-1.585.749-2.141-.465-2.607-.849-.326-1.543-1.02-1.543-1.544s.45-.674 1-.334 1-.132 1-1.048c0-1.108-.529-1.463-1.582-1.059-.87.334-2.22.607-3 .607-2.085 0-1.726 2.327.582 3.768 1.1.687 2 1.699 2 2.249 0 .583-.857.475-2.055-.259-1.74-1.065-2.209-.989-3.05.492-1.597 2.811-2.895 2.026-2.895-1.75 0-1.925-.5-3.5-1.111-3.5s-.06-.851 1.225-1.891l2.335-1.891-3.796-1.048-3.796-1.048-15.557 13.189c-8.557 7.254-24.584 20.952-35.616 30.439l-20.059 17.25h-65.646c-36.105 0-65.876-.231-66.158-.512-.282-.282.67-5.795 2.115-12.25l2.627-11.738 43.083-.5 43.083-.5 21.1-17.5 21.1-17.5-59.438-.258-59.438-.258.629-3.242c.345-1.783 1.583-7.292 2.751-12.242l2.122-9 66.216-.257 66.216-.257 12.722 14.91 12.723 14.911 2.645-2.154c8.58-6.987 28.923-25.016 28.923-25.634 0-.403-7.681-9.807-17.07-20.898l-17.07-20.166-79.18.164c-43.549.089-81.205.526-83.68.969m-78.5 26.769c-15.95 5.401-29.675 10.082-30.5 10.403-.825.32 7.725.595 19 .611l20.5.03 10.936-10.451c6.016-5.747 10.516-10.442 10-10.432-.515.01-13.986 4.437-29.936 9.839m279.75 33.174c-2.356.947-2.917 2.439-1.294 3.442.526.325.709 1.364.406 2.309-.422 1.318-.325 1.402.419.361.709-.993 1.161-1.047 1.683-.201.539.872 1.06.868 2.125-.016 1.556-1.292 1.964-3.386.48-2.469-.512.317-1.213.118-1.559-.441-.345-.559-.151-1.016.431-1.016s1.059-.675 1.059-1.5c0-1.691-.542-1.758-3.75-.469m-404.25 8.02c-11.275 3.756-21.616 7.202-22.98 7.656-3.016 1.006-4.653 7.118-5.57 20.793-2.004 29.911 12.595 52.133 40.371 61.449 12.491 4.19 23.813 5.013 69.186 5.033l42.508.018 3.821-17.75c2.101-9.762 4.041-18.537 4.31-19.5.46-1.647-1.991-1.75-41.491-1.75-45.541 0-52.488-.601-61.869-5.355-5.925-3.002-11.55-8.984-13.415-14.264-.787-2.227-1.356-7.717-1.335-12.881.038-9.431 1.585-15.694 6.102-24.717 2.551-5.094 2.763-5.842 1.612-5.673-.413.061-9.975 3.184-21.25 6.941m412.25-.389c-1.758.71-1.562 3.338.25 3.338.825 0 1.5-.188 1.5-.418s.273-1.13.607-2c.611-1.593-.05-1.85-2.357-.92m-19.483 12.174c.289.751-.091 1.746-.842 2.211-2.559 1.581-.235 1.995 2.676.477 1.595-.831 3.462-1.514 4.149-1.518.688-.003 1.25-.409 1.25-.901s-1.745-1.061-3.878-1.265c-2.967-.283-3.756-.049-3.355.996m9.881 7.849c-1.376 1.377-.538 2.017 2.007 1.53 2.338-.447 2.586-.244 2.078 1.698-.478 1.828-.205 2.153 1.595 1.896 2.374-.338 3.716-4.476 1.452-4.476-.724 0-2.478-.291-3.899-.648s-2.876-.357-3.233 0m23.872 14.447c-7.138 6.095-14.307 12.121-15.93 13.391l-2.95 2.309 14.93 17.697c8.212 9.733 16.73 19.895 18.93 22.582l4 4.884 27.75.003c15.263.001 27.75-.177 27.75-.396 0-.444-2.492-3.426-36.307-43.434-13.095-15.493-24.12-28.157-24.5-28.143-.381.014-6.534 5.012-13.673 11.107m-27.52-9.182c0 1.012 4.045 2.14 5.174 1.443 1.731-1.07.71-2.092-2.174-2.174-1.65-.047-3 .282-3 .731m-735.5 93.3c-.24.688-2.282 10.025-4.537 20.75s-4.325 20.288-4.599 21.25c-.432 1.515.24 1.75 5.001 1.75 4.378 0 5.604-.357 6.009-1.75.279-.962 2.349-10.3 4.599-20.75s4.332-19.787 4.626-20.75c.466-1.522-.193-1.75-5.063-1.75-3.579 0-5.756.451-6.036 1.25m54.58 19.462c-2.423 11.434-4.611 21.576-4.86 22.538-.391 1.511.305 1.75 5.096 1.75 4.433 0 5.647-.352 6.036-1.75.268-.962 1.698-7.6 3.178-14.75s3.036-13.634 3.459-14.41c.537-.984 4.014 3.463 11.528 14.75l10.759 16.16h7.178 7.177l4.686-21.25c2.577-11.687 4.685-21.812 4.684-22.5-.001-.842-1.725-1.25-5.283-1.25h-5.283l-3.381 16.037c-2.297 10.898-3.707 15.71-4.4 15.017-.561-.561-5.554-7.665-11.095-15.787l-10.074-14.767-7.499-.288-7.499-.287zm102.956-.462c-2.387 11.137-4.549 21.262-4.805 22.5l-.464 2.25h19.435c24.042 0 28.103-.932 34.981-8.025 5.309-5.475 6.666-9.122 7.509-20.185l.588-7.71-3.437-3.437c-1.89-1.89-5.216-3.931-7.39-4.534-2.229-.619-12.265-1.1-23.015-1.103l-19.062-.006zm104.568-18.5c-2.194 7.237-5.728 28.292-5.292 31.538 1.128 8.414 8.777 12.242 24.188 12.106 14.513-.128 23.246-4.019 27.387-12.202 1.529-3.023 8.113-29.25 8.113-32.321 0-.479-2.466-.871-5.481-.871-4.867 0-5.538.252-5.988 2.25-.278 1.238-1.643 7.401-3.033 13.697-1.389 6.296-3.23 12.521-4.09 13.834-2.361 3.603-7.389 5.219-16.241 5.219-9.602 0-13.167-2.02-13.167-7.463 0-2.762 2.445-16.47 4.511-25.287.497-2.123.219-2.25-4.925-2.25-4.323 0-5.561.362-5.982 1.75m105.987-.269c-5.372 1.914-7.606 4.446-9.14 10.36-1.6 6.17-.746 9.848 2.922 12.591 2.43 1.817 4.426 2.101 16.446 2.338 16.858.333 18.181.591 18.181 3.549 0 4.411-1.271 4.681-22.067 4.681h-19.668l-1.002 5.066-1.001 5.067 22.666-.317c19.627-.274 23.027-.553 25.355-2.08 4.191-2.749 5.906-6.209 6.437-12.986.455-5.8.297-6.43-2.193-8.75-2.572-2.396-3.342-2.521-18.557-3-16.751-.528-19.025-1.16-17.099-4.759 1.404-2.623 6.968-3.29 24.892-2.984 15.67.267 14.468.765 15.695-6.507l.633-3.75-19.296.044c-13.858.031-20.397.436-23.204 1.437m82.96-.564c-.311.504-.835 2.867-1.163 5.25l-.596 4.333 9.104-.321c7.943-.28 9.104-.109 9.104 1.338 0 .913-1.575 8.586-3.5 17.052s-3.5 15.627-3.5 15.912 2.466.519 5.481.519c4.858 0 5.542-.256 6.017-2.25.294-1.238 1.996-9 3.781-17.25l3.246-15 10.112-.284 10.112-.283.615-3.717c.338-2.044.619-4.278.625-4.966.009-.966-5.538-1.25-24.43-1.25-13.742 0-24.689.401-25.008.917m85.126 20.888c-2.572 11.993-4.677 22.118-4.677 22.5s2.43.695 5.4.695h5.399l1.697-7.75c.933-4.262 2.677-12.025 3.875-17.25l2.177-9.5 10.203-.285c13.575-.379 16.654.44 17.058 4.534.21 2.131-.349 3.791-1.75 5.192-1.829 1.829-3.288 2.059-13.04 2.059h-10.981l-.612 2.75c-.336 1.512-.825 3.537-1.086 4.5-.407 1.499.252 1.75 4.588 1.75 5.057 0 5.07.008 10.782 7l5.718 7h7.889 7.889l-6.147-6.934-6.147-6.933 4.294-1.921c5.292-2.368 7.302-4.567 9.268-10.137 1.98-5.614 1.94-11.039-.105-13.958-3.098-4.423-6.849-5.117-27.66-5.117h-19.356zm102.899-20.555c-.199.688-.888 3.95-1.531 7.25-1.414 7.26-6.935 32.306-7.66 34.75-.452 1.52.216 1.75 5.079 1.75 3.605 0 5.738-.445 5.988-1.25.215-.687 2.259-10.025 4.544-20.75s4.376-20.287 4.647-21.25c.426-1.517-.254-1.75-5.107-1.75-3.619 0-5.727.442-5.96 1.25m59.424-.791c0 .253-1.822 8.915-4.048 19.25-2.227 10.335-4.31 20.253-4.631 22.041l-.583 3.25h23.02 23.019l.67-3.571c.369-1.964.917-4.214 1.219-5 .462-1.205-2.219-1.429-17.138-1.429h-17.687l.697-3.25c.384-1.787.896-3.588 1.139-4 .242-.412 6.387-.75 13.655-.75h13.213l1.044-4.5 1.044-4.5h-13.316c-14.383 0-14.404-.009-12.342-5.435l.975-2.565h16.958c18.697 0 17.123.571 18.597-6.75l.654-3.25h-23.08c-12.693 0-23.079.207-23.079.459m98 .713c-6.649 1.883-11 8.043-11 15.573 0 8.399 4.234 10.241 23.55 10.249 12.942.006 15.45.596 15.45 3.635 0 .675-.707 1.935-1.571 2.8-1.321 1.32-4.671 1.571-21 1.571-10.686 0-19.449.337-19.473.75s-.419 2.693-.878 5.068l-.834 4.317 22.128-.317c24.242-.348 26.442-.847 29.955-6.795 1.984-3.358 3.123-10.094 2.277-13.463-1.259-5.018-4.556-6.014-21.723-6.56-8.646-.275-16.035-.817-16.42-1.203-.386-.387-.429-1.79-.095-3.117.796-3.173 3.916-3.655 23.751-3.669l15.618-.011.989-5 .988-5-19.106.09c-10.508.05-20.681.536-22.606 1.082m-625.321 9.578c-.241.412-1.427 5.25-2.636 10.75-1.208 5.5-2.418 10.788-2.687 11.75-.448 1.599.574 1.75 11.827 1.744 6.774-.003 13.985-.468 16.024-1.035 4.46-1.238 7.337-4.96 8.767-11.342 2.353-10.5-.816-12.617-18.883-12.617-6.585 0-12.17.338-12.412.75" fill="#060505"/><path d="m384.336 21c0 4.125.177 5.813.392 3.75.216-2.062.216-5.437 0-7.5-.215-2.062-.392-.375-.392 3.75m434.914 28.716c1.513.229 3.987.229 5.5 0s.275-.416-2.75-.416-4.263.187-2.75.416m14.415.034c-.249.413-.5 4.05-.557 8.083l-.104 7.334 4.813-3.834c2.646-2.108 6.984-5.746 9.638-8.083l4.827-4.25h-9.082c-4.995 0-9.286.337-9.535.75m-512.699 28-5.466 5.75 5.75-5.466c3.163-3.006 5.75-5.594 5.75-5.75 0-.742-.956.124-6.034 5.466m186.034 1.25-21.5.56 21.191.22c13.291.138 21.421-.153 21.809-.78.34-.55.479-.901.309-.78s-9.984.472-21.809.78m-372.689.748c8.146.168 21.196.168 29-.001 7.804-.168 1.139-.306-14.811-.306-15.95.001-22.335.139-14.189.307m503.439.002c18.288.152 48.212.152 66.5 0 18.288-.153 3.325-.278-33.25-.278s-51.538.125-33.25.278m-105.5 11.966c1.513.229 3.987.229 5.5 0s.275-.416-2.75-.416-4.263.187-2.75.416m13.478.006c1.775.221 4.925.224 7 .008 2.074-.217.622-.397-3.228-.402-3.85-.004-5.548.173-3.772.394m-424.915 15.027c8.972.165 23.372.165 32-.001 8.628-.167 1.287-.302-16.313-.302-17.6.001-24.659.137-15.687.303m-32.045 44.976c1.797.222 4.497.218 6-.01 1.503-.229.032-.411-3.268-.405-3.3.005-4.529.192-2.732.415m-17.77 2.403c.003.932 1.957 2.36 7.252 5.3l4.75 2.636v-3.943-3.943l-6.002-.339c-3.301-.187-6.001-.057-6 .289m40.752 10.62c7.837.169 20.662.169 28.5 0 7.837-.169 1.425-.307-14.25-.307s-22.088.138-14.25.307m349.5.001c11.963.159 31.538.159 43.5 0 11.962-.16 2.175-.29-21.75-.29s-33.712.13-21.75.29m149.478-.027c1.775.221 4.925.224 7 .008 2.074-.217.622-.397-3.228-.402-3.85-.004-5.548.173-3.772.394m27.084.026c8.421.168 21.921.167 30 0 8.078-.168 1.188-.305-15.312-.305-16.5.001-23.11.138-14.688.305m56.48-.006c3.735.193 9.585.192 13-.003 3.414-.194.358-.352-6.792-.35-7.15.001-9.944.161-6.208.353m204.018 13.758c.005 3.3.192 4.529.415 2.732.222-1.797.218-4.497-.01-6-.229-1.503-.411-.032-.405 3.268m-11.534 8.233c2.352.212 5.952.209 8-.006s.124-.388-4.276-.384c-4.4.003-6.076.179-3.724.39m14.891-.066c-.367.366-.66 1.154-.652 1.75.01.698.281.665.763-.093.412-.646 2.542-1.358 4.735-1.581l3.987-.407-4.083-.168c-2.246-.092-4.384.132-4.75.499m-3.331 8.333c0 4.125.177 5.813.392 3.75.216-2.062.216-5.437 0-7.5-.215-2.062-.392-.375-.392 3.75m-803.684 9.235c-.633.404 19.548.641 44.848.527s39.025-.331 30.5-.482c-39.204-.693-74.298-.714-75.348-.045m805.265 8.265c-.565 5.006-.405 6.321.642 5.274.308-.307.416-2.745.241-5.417l-.318-4.857zm-671.25 24.167c-1.012 1.011-.797 3.532.245 2.887.502-.31.761.226.577 1.191-.185.965-.377 1.98-.428 2.255-.05.275-.528-.175-1.061-1-.838-1.297-.971-1.275-.985.167-.008.916.359 1.816.817 2 .457.183.44 1.812-.038 3.619s-1.303 3.018-1.832 2.691-.962.133-.962 1.023.408 1.366.907 1.058c.498-.309.661.378.361 1.525-.415 1.586-.748 1.766-1.391.752-.622-.98-.85-.79-.862.715-.008 1.127.548 2.656 1.235 3.397 1.02 1.1.929 1.234-.5.732-.963-.339-1.75-.18-1.75.352 0 .585 5.257.904 13.25.806 10.296-.127 12.024-.322 7.75-.875-5.241-.679-5.135-.709 2.253-.626 6.294.071 8.081-.258 9.5-1.748 1.693-1.779 1.661-1.781-1.034-.076-1.53.967-3.006 1.534-3.281 1.259-.564-.564 4.564-4.205 5.979-4.245.504-.014 1.101-.701 1.326-1.526.364-1.333.291-1.333-.652 0s-1.06 1.333-1.06 0c0-.825.436-2.175.969-3 .798-1.235.972-1.25.985-.083.008.779.191 1.229.407 1s.064-2.541-.337-5.138c-.48-3.108-.358-4.875.358-5.171.598-.248.101-.486-1.104-.529-2.347-.085-3.992-1.688-2.301-2.244.561-.184-5.174-.3-12.744-.257l-13.764.078 12.5-.624 12.5-.624-12.583-.204c-6.921-.112-12.884.096-13.25.463m217.122.074c3.459.196 8.859.195 12-.003s.311-.358-6.289-.356-9.17.164-5.711.359m65.961-.009c2.337.211 6.163.211 8.5 0 2.337-.21.425-.383-4.25-.383s-6.587.173-4.25.383m24.901.018c-.257.412 2.754.627 6.691.476 12.184-.466 13.592-.899 3.467-1.066-5.33-.088-9.901.178-10.158.59m71 0c-.257.412 3.204.629 7.691.481 14.018-.463 15.604-.888 3.967-1.063-6.155-.092-11.401.17-11.658.582m166.599-.005c4.813.183 12.688.183 17.5 0 4.813-.184.875-.334-8.75-.334s-13.562.15-8.75.334m94 0c4.813.183 12.688.183 17.5 0 4.813-.184.875-.334-8.75-.334s-13.562.15-8.75.334m-432.461 6.996c3.459.196 8.859.195 12-.003s.311-.358-6.289-.356-9.17.164-5.711.359m334.461.001c3.712.192 9.788.192 13.5 0 3.712-.193.675-.35-6.75-.35s-10.462.157-6.75.35m92.539-.001c3.459.196 8.859.195 12-.003s.311-.358-6.289-.356-9.17.164-5.711.359" fill="#fbfafa"/></g></svg>